<?xml version="1.0" encoding="utf-8"?>
<!-- Generator: Adobe Illustrator 26.3.1, SVG Export Plug-In . SVG Version: 6.00 Build 0)  -->
<svg version="1.1" id="Warstwa_2" xmlns="http://www.w3.org/2000/svg" xmlns:xlink="http://www.w3.org/1999/xlink" x="0px" y="0px"
	 viewBox="0 0 1418.87 213.01" style="enable-background:new 0 0 1418.87 213.01;" xml:space="preserve">
<style type="text/css">
	.st0{fill:#F9BEAD;}
	.st1{opacity:0.74;fill:#F9BEAD;}
	.st2{opacity:0.46;fill:#F9BEAD;}
	.st3{opacity:0.36;fill:#F9BEAD;}
	.st4{fill:#C10D14;}
	.st5{opacity:0.65;fill:#CC311A;}
	.st6{opacity:0.42;fill:#F9BEAD;}
	.st7{opacity:0.24;fill:#F9BEAD;}
	.st8{opacity:0.63;fill:#F9BEAD;}
	.st9{opacity:0.86;fill:#F9BEAD;}
	.st10{fill:#019B24;}
	.st11{fill:#0E762A;}
	.st12{fill:#086523;}
	.st13{fill:#03581E;}
	.st14{opacity:0.71;fill:#03581E;}
	.st15{opacity:0.36;fill:#03581E;}
	.st16{opacity:0.49;fill:#F9BEAD;}
	.st17{fill:#065D20;}
	.st18{fill:#029A25;}
	.st19{fill:#003F12;}
	.st20{opacity:0.75;fill:#F9BEAD;}
	.st21{opacity:0.35;fill:#F9BEAD;}
	.st22{opacity:0.08;fill:#8CC63F;}
	.st23{opacity:0.31;fill:#226435;}
	.st24{opacity:0.67;fill:#003F12;}
	.st25{opacity:0.64;fill:#8CC63F;}
	.st26{fill:#006837;}
	.st27{fill:#007841;}
	.st28{opacity:0.38;fill:#FFFFFF;}
</style>
<rect x="167.78" y="67.58" class="st0" width="8.94" height="9"/>
<rect x="196.82" y="72.79" class="st0" width="3.81" height="3.78"/>
<rect x="206.31" y="72.79" class="st1" width="3.81" height="3.78"/>
<rect x="374.7" y="93.62" class="st2" width="9.95" height="9.87"/>
<rect x="215.53" y="72.79" class="st3" width="3.81" height="3.78"/>
<rect x="184.56" y="71.8" class="st0" width="4.75" height="4.78"/>
<rect x="919.79" y="64.47" width="73.51" height="73.51"/>
<path class="st4" d="M994.3,138.98h-75.51V63.47h75.51V138.98z M919.79,137.98h73.51V64.47h-73.51V137.98z"/>
<rect x="1055.11" y="1.44" width="210.67" height="210.67"/>
<rect x="482.03" y="47.89" class="st0" width="78.47" height="78.47"/>
<rect x="902.91" y="69.11" class="st5" width="20.97" height="20.97"/>
<path class="st6" d="M910.93,136.87h-8.02v-8.02h8.02V136.87z M903.8,135.98h6.24v-6.24h-6.24V135.98z"/>
<path class="st6" d="M910.93,151.14h-8.02v-8.02h8.02V151.14z M903.8,150.25h6.24V144h-6.24V150.25z"/>
<path class="st7" d="M910.93,165.4h-8.02v-8.02h8.02V165.4z M903.8,164.51h6.24v-6.24h-6.24V164.51z"/>
<rect x="902.91" y="114.03" class="st8" width="8.02" height="8.02"/>
<rect x="902.91" y="98.88" class="st9" width="8.02" height="8.02"/>
<rect x="331.04" y="57.49" class="st0" width="28.01" height="28.01"/>
<path class="st4" d="M338.56,78.25h-48.08V30.17h48.08V78.25z M291.48,77.25h46.08V31.17h-46.08V77.25z"/>
<rect x="701.46" y="72.62" class="st10" width="16.04" height="16.04"/>
<rect x="0.51" y="73.07" class="st10" width="7.09" height="7.09"/>
<rect x="7.6" y="73.07" class="st11" width="7.09" height="7.09"/>
<rect x="12.06" y="73.07" class="st12" width="7.09" height="7.09"/>
<rect x="17.8" y="73.07" class="st13" width="7.09" height="7.09"/>
<rect x="31.43" y="73.07" class="st14" width="7.09" height="7.09"/>
<rect x="45.01" y="73.07" class="st15" width="7.09" height="7.09"/>
<path class="st16" d="M360.06,86.5h-30.01V56.49h30.01V86.5z M331.04,85.5h28.01V57.49h-28.01V85.5z"/>
<path class="st0" d="M159.19,76.58h-22.39V54.06h22.39V76.58z M137.31,76.08h21.39V54.56h-21.39V76.08z"/>
<rect x="760.19" y="155.99" width="33.01" height="33.01"/>
<path class="st0" d="M793.71,189.51h-34.01v-34.01h34.01V189.51z M760.69,188.51h32.01v-32.01h-32.01V188.51z"/>
<rect x="1199.37" y="114.7" class="st17" width="86.63" height="86.63"/>
<path class="st18" d="M1266.28,212.61h-211.67V0.94h211.67V212.61z M1055.61,211.61h209.67V1.94h-209.67V211.61z"/>
<rect x="1243.16" y="66.38" class="st19" width="62.17" height="62.17"/>
<rect x="1052.76" y="69.11" class="st20" width="8.02" height="8.02"/>
<rect x="1036.98" y="69.11" class="st21" width="8.02" height="8.02"/>
<rect x="1068.09" y="69.11" class="st20" width="8.02" height="8.02"/>
<rect x="1282.12" y="90.95" class="st22" width="27.13" height="27.13"/>
<rect x="1243.16" y="114.7" class="st23" width="42.84" height="13.85"/>
<path class="st18" d="M1384.07,88.54h-38.7v-38.7h38.7V88.54z M1346.12,87.79h37.2v-37.2h-37.2V87.79z"/>
<rect x="1376.6" y="82.05" class="st24" width="17.3" height="17.3"/>
<rect x="1412.67" y="115.14" class="st25" width="5.88" height="5.88"/>
<rect x="1094.31" y="69.11" class="st4" width="8.02" height="8.02"/>
<rect x="1265.28" y="66.38" class="st26" width="1" height="48.34"/>
<rect x="1265.28" y="114.69" class="st27" width="1" height="13.86"/>
<rect x="475.36" y="42.76" class="st28" width="60.72" height="60.72"/>
<rect x="1305.33" y="90.95" class="st25" width="3.92" height="27.13"/>
</svg>
